<svg xmlns="http://www.w3.org/2000/svg" xmlns:xlink="http://www.w3.org/1999/xlink" 
viewBox="0,0,256,256" width="250px" height="250px" fill-rule="nonzero"><g fill="none" fill-rule="nonzero" stroke="none" stroke-width="1" stroke-linecap="butt" stroke-linejoin="none" stroke-miterlimit="10" stroke-dasharray="" stroke-dashoffset="0" font-family="none" font-weight="none" font-size="none" text-anchor="none" style="mix-blend-mode: normal"><g transform="scale(5.33333,5.33333)"><circle cx="24" cy="24" r="21" fill="#5d8bfc" stroke="none" stroke-linejoin="miter"></circle><path d="M45.051,24c0,3.826 -1.069,7.415 -2.857,10.504c-1.844,3.187 -4.305,6.189 -7.492,8.033c-3.089,1.787 -6.877,2.871 -10.702,2.871c-3.826,0 -7.567,-1.165 -10.656,-2.952c-3.187,-1.844 -5.847,-4.677 -7.69,-7.864c-1.787,-3.089 -2.276,-6.766 -2.276,-10.592c0,-3.826 0.68,-7.393 2.467,-10.482c1.844,-3.187 4.366,-6.038 7.553,-7.882c3.089,-1.787 6.776,-2.448 10.602,-2.448c3.826,0 7.371,0.906 10.46,2.694c3.187,1.844 5.545,4.627 7.389,7.814c1.787,3.089 3.202,6.478 3.202,10.304z" fill="none" stroke="#010101" stroke-linejoin="miter"></path><path d="M17.689,26.814c0.492,1.906 1.089,3.785 1.785,5.626c0.151,0.399 0.366,0.85 0.782,0.946c0.367,0.084 0.725,-0.152 1.02,-0.386c0.846,-0.672 1.616,-1.439 2.292,-2.282c1.123,0.936 2.304,1.808 3.427,2.744c0.437,0.364 0.884,0.734 1.414,0.94c0.53,0.205 1.168,0.22 1.635,-0.104c0.321,-0.222 0.525,-0.574 0.692,-0.927c0.364,-0.765 0.633,-1.572 0.833,-2.395c0.8,-3.306 0.851,-6.256 2.324,-9.936c0.473,-1.182 0.572,-2.491 0.653,-3.76c0.048,-0.748 -0.541,-1.378 -1.289,-1.408c-0.89,-0.036 -1.761,0.193 -2.619,0.451c-6.127,1.842 -11.582,4.246 -17.015,6.668c-0.505,0.225 -1.044,0.413 -1.436,0.803c-0.221,0.22 -0.397,0.518 -0.365,0.828c0.058,0.568 0.716,0.837 1.268,0.98c1.537,0.398 3.043,0.915 4.599,1.212z" fill="#ffffff" stroke="none" stroke-linejoin="miter"></path><path d="M20.843,28.309l-0.304,4.904l3.03,-2.496z" fill="#bcbcbc" stroke="none" stroke-linejoin="miter"></path><path d="M20.721,28.01c1.109,1.117 2.262,2.191 3.455,3.219" fill="none" stroke="#010101" stroke-linejoin="round"></path><path d="M18.264,26.388l11.376,-7.433l0.506,0.455l-8.949,8.242l-0.405,1.264l-0.657,4.247l-2.377,-5.966z" fill="#bcbcbc" stroke="none" stroke-linejoin="miter"></path><path d="M17.689,26.814c0.492,1.906 1.089,3.785 1.785,5.626c0.151,0.399 0.366,0.85 0.782,0.946c0.367,0.084 0.725,-0.152 1.02,-0.386c0.846,-0.672 1.616,-1.439 2.292,-2.282c1.123,0.936 2.304,1.808 3.427,2.744c0.437,0.364 0.884,0.734 1.414,0.94c0.53,0.205 1.168,0.22 1.635,-0.104c0.321,-0.222 0.525,-0.574 0.692,-0.927c0.364,-0.765 0.633,-1.572 0.833,-2.395c0.8,-3.306 0.851,-6.256 2.324,-9.936c0.473,-1.182 0.572,-2.491 0.653,-3.76c0.048,-0.748 -0.541,-1.378 -1.289,-1.408c-0.89,-0.036 -1.761,0.193 -2.619,0.451c-6.127,1.842 -11.582,4.246 -17.015,6.668c-0.505,0.225 -1.044,0.413 -1.436,0.803c-0.221,0.22 -0.397,0.518 -0.365,0.828c0.058,0.568 0.716,0.837 1.268,0.98c1.537,0.398 3.043,0.915 4.599,1.212z" fill="none" stroke="#010101" stroke-linejoin="round"></path><path d="M17.689,26.814c3.357,-2.222 6.437,-4.187 9.794,-6.409c0.695,-0.46 2.562,-1.753 2.87,-1.262c0.411,0.654 -6.383,5.935 -9.624,8.879c-0.164,1.727 -0.287,3.459 -0.37,5.192" fill="none" stroke="#010101" stroke-linejoin="round"></path></g></g></svg>